HIERARCHY
ROOT Root
{
  OFFSET 0.0 0.0 0.0
  CHANNELS 6 Xposition Yposition Zposition Zrotation Yrotation Xrotation
  JOINT Hips
  {
    OFFSET 0.0 100.0 0.0
    CHANNELS 6 Xposition Yposition Zposition Zrotation Yrotation Xrotation
    JOINT Spine1
    {
      OFFSET -0.013727 5.003763 -0.053727
      CHANNELS 3 Zrotation Yrotation Xrotation
      JOINT Spine2
      {
        OFFSET -0.0 7.125301 -0.029825
        CHANNELS 3 Zrotation Yrotation Xrotation
        JOINT Chest
        {
          OFFSET -1e-06 7.550063 -0.815971
          CHANNELS 3 Zrotation Yrotation Xrotation
          JOINT Neck1
          {
            OFFSET -0.181677 26.311295 -0.553348
            CHANNELS 3 Zrotation Yrotation Xrotation
            JOINT Neck2
            {
              OFFSET -3e-06 7.709397 2.302585
              CHANNELS 3 Zrotation Yrotation Xrotation
              JOINT Head
              {
                OFFSET -5e-06 6.128916 1.953709
                CHANNELS 3 Zrotation Yrotation Xrotation
                JOINT HeadEnd
                {
                  OFFSET 0.003598 16.065403 -1.835379
                  CHANNELS 3 Zrotation Yrotation Xrotation
                }
                JOINT Jaw
                {
                  OFFSET 0.002637 0.475592 3.094941
                  CHANNELS 3 Zrotation Yrotation Xrotation
                }
                JOINT LeftEye
                {
                  OFFSET 3.206381 5.380205 7.586883
                  CHANNELS 3 Zrotation Yrotation Xrotation
                }
                JOINT RightEye
                {
                  OFFSET -3.22244 5.361869 7.558234
                  CHANNELS 3 Zrotation Yrotation Xrotation
                }
              }
            }
          }
          JOINT LeftShoulder
          {
            OFFSET 1.621652 23.237164 5.113413
            CHANNELS 3 Zrotation Yrotation Xrotation
            JOINT LeftArm
            {
              OFFSET 14.919846 2e-06 -5.502326
              CHANNELS 3 Zrotation Yrotation Xrotation
              JOINT LeftForeArm
              {
                OFFSET 28.739307 0.0 -0.002588
                CHANNELS 3 Zrotation Yrotation Xrotation
                JOINT LeftHand
                {
                  OFFSET 27.093981 -1e-06 0.002609
                  CHANNELS 3 Zrotation Yrotation Xrotation
                  JOINT LeftHandThumb1
                  {
                    OFFSET 2.276482 -1.392045 3.191413
                    CHANNELS 3 Zrotation Yrotation Xrotation
                    JOINT LeftHandThumb2
                    {
                      OFFSET 4.012836 -1.828127 1.641654
                      CHANNELS 3 Zrotation Yrotation Xrotation
                      JOINT LeftHandThumb3
                      {
                        OFFSET 2.798515 0.0 -3e-06
                        CHANNELS 3 Zrotation Yrotation Xrotation
                        JOINT LeftHandThumbEnd
                        {
                          OFFSET 3.180793 -4e-06 4e-06
                          CHANNELS 3 Zrotation Yrotation Xrotation
                        }
                      }
                    }
                  }
                  JOINT LeftHandIndex1
                  {
                    OFFSET 3.247555 -0.531998 2.296169
                    CHANNELS 3 Zrotation Yrotation Xrotation
                    JOINT LeftHandIndex2
                    {
                      OFFSET 6.364578 0.01206 0.1786
                      CHANNELS 3 Zrotation Yrotation Xrotation
                      JOINT LeftHandIndex3
                      {
                        OFFSET 3.662364 0.0 0.0
                        CHANNELS 3 Zrotation Yrotation Xrotation
                        JOINT LeftHandIndex4
                        {
                          OFFSET 2.329242 4e-06 4e-06
                          CHANNELS 3 Zrotation Yrotation Xrotation
                          JOINT LeftHandIndexEnd
                          {
                            OFFSET 2.759615 -0.180537 -0.113024
                            CHANNELS 3 Zrotation Yrotation Xrotation
                          }
                        }
                      }
                    }
                  }
                  JOINT LeftHandMiddle1
                  {
                    OFFSET 3.163495 0.240981 1.000332
                    CHANNELS 3 Zrotation Yrotation Xrotation
                    JOINT LeftHandMiddle2
                    {
                      OFFSET 6.19078 -0.259278 -1.002548
                      CHANNELS 3 Zrotation Yrotation Xrotation
                      JOINT LeftHandMiddle3
                      {
                        OFFSET 4.35652 -4e-06 -1e-06
                        CHANNELS 3 Zrotation Yrotation Xrotation
                        JOINT LeftHandMiddle4
                        {
                          OFFSET 2.996877 -8e-06 0.0
                          CHANNELS 3 Zrotation Yrotation Xrotation
                          JOINT LeftHandMiddleEnd
                          {
                            OFFSET 2.304287 -0.294569 -0.031741
                            CHANNELS 3 Zrotation Yrotation Xrotation
                          }
                        }
                      }
                    }
                  }
                  JOINT LeftHandRing1
                  {
                    OFFSET 2.882643 -0.053652 -0.322543
                    CHANNELS 3 Zrotation Yrotation Xrotation
                    JOINT LeftHandRing2
                    {
                      OFFSET 5.854541 -0.486202 -1.373841
                      CHANNELS 3 Zrotation Yrotation Xrotation
                      JOINT LeftHandRing3
                      {
                        OFFSET 4.350578 0.0 3e-06
                        CHANNELS 3 Zrotation Yrotation Xrotation
                        JOINT LeftHandRing4
                        {
                          OFFSET 2.651321 7e-06 2e-06
                          CHANNELS 3 Zrotation Yrotation Xrotation
                          JOINT LeftHandRingEnd
                          {
                            OFFSET 1.936105 0.077687 -7.1e-05
                            CHANNELS 3 Zrotation Yrotation Xrotation
                          }
                        }
                      }
                    }
                  }
                  JOINT LeftHandPinky1
                  {
                    OFFSET 2.8655 -0.310005 -1.600378
                    CHANNELS 3 Zrotation Yrotation Xrotation
                    JOINT LeftHandPinky2
                    {
                      OFFSET 5.087849 -1.331141 -1.77123
                      CHANNELS 3 Zrotation Yrotation Xrotation
                      JOINT LeftHandPinky3
                      {
                        OFFSET 3.070974 4e-06 0.0
                        CHANNELS 3 Zrotation Yrotation Xrotation
                        JOINT LeftHandPinky4
                        {
                          OFFSET 1.549672 0.0 1e-06
                          CHANNELS 3 Zrotation Yrotation Xrotation
                          JOINT LeftHandPinkyEnd
                          {
                            OFFSET 1.944893 -0.157802 0.057219
                            CHANNELS 3 Zrotation Yrotation Xrotation
                          }
                        }
                      }
                    }
                  }
                }
              }
            }
          }
          JOINT RightShoulder
          {
            OFFSET -1.380118 23.180309 5.214158
            CHANNELS 3 Zrotation Yrotation Xrotation
            JOINT RightArm
            {
              OFFSET -15.037196 1.2e-05 -5.545604
              CHANNELS 3 Zrotation Yrotation Xrotation
              JOINT RightForeArm
              {
                OFFSET -28.736639 2e-06 -0.002597
                CHANNELS 3 Zrotation Yrotation Xrotation
                JOINT RightHand
                {
                  OFFSET -27.133619 -0.0 0.002613
                  CHANNELS 3 Zrotation Yrotation Xrotation
                  JOINT RightHandThumb1
                  {
                    OFFSET -2.274032 -1.383988 3.163127
                    CHANNELS 3 Zrotation Yrotation Xrotation
                    JOINT RightHandThumb2
                    {
                      OFFSET -4.011429 -1.827466 1.640914
                      CHANNELS 3 Zrotation Yrotation Xrotation
                      JOINT RightHandThumb3
                      {
                        OFFSET -2.794935 -4e-06 -3e-06
                        CHANNELS 3 Zrotation Yrotation Xrotation
                        JOINT RightHandThumbEnd
                        {
                          OFFSET -3.183852 4e-06 1e-06
                          CHANNELS 3 Zrotation Yrotation Xrotation
                        }
                      }
                    }
                  }
                  JOINT RightHandIndex1
                  {
                    OFFSET -3.253266 -0.520057 2.282866
                    CHANNELS 3 Zrotation Yrotation Xrotation
                    JOINT RightHandIndex2
                    {
                      OFFSET -6.341917 0.012471 0.178266
                      CHANNELS 3 Zrotation Yrotation Xrotation
                      JOINT RightHandIndex3
                      {
                        OFFSET -3.654871 -8e-06 -0.0
                        CHANNELS 3 Zrotation Yrotation Xrotation
                        JOINT RightHandIndex4
                        {
                          OFFSET -2.327586 0.0 1e-06
                          CHANNELS 3 Zrotation Yrotation Xrotation
                          JOINT RightHandIndexEnd
                          {
                            OFFSET -2.76179 -0.180656 -0.113078
                            CHANNELS 3 Zrotation Yrotation Xrotation
                          }
                        }
                      }
                    }
                  }
                  JOINT RightHandMiddle1
                  {
                    OFFSET -3.168106 0.246593 1.00103
                    CHANNELS 3 Zrotation Yrotation Xrotation
                    JOINT RightHandMiddle2
                    {
                      OFFSET -6.180828 -0.258836 -1.000895
                      CHANNELS 3 Zrotation Yrotation Xrotation
                      JOINT RightHandMiddle3
                      {
                        OFFSET -4.348901 0.0 -0.0
                        CHANNELS 3 Zrotation Yrotation Xrotation
                        JOINT RightHandMiddle4
                        {
                          OFFSET -3.00024 -4e-06 -2e-06
                          CHANNELS 3 Zrotation Yrotation Xrotation
                          JOINT RightHandMiddleEnd
                          {
                            OFFSET -2.30252 -0.29437 -0.031706
                            CHANNELS 3 Zrotation Yrotation Xrotation
                          }
                        }
                      }
                    }
                  }
                  JOINT RightHandRing1
                  {
                    OFFSET -2.88569 -0.067952 -0.308858
                    CHANNELS 3 Zrotation Yrotation Xrotation
                    JOINT RightHandRing2
                    {
                      OFFSET -5.854198 -0.48613 -1.373731
                      CHANNELS 3 Zrotation Yrotation Xrotation
                      JOINT RightHandRing3
                      {
                        OFFSET -4.33881 -4e-06 -0.0
                        CHANNELS 3 Zrotation Yrotation Xrotation
                        JOINT RightHandRing4
                        {
                          OFFSET -2.654903 -4e-06 4e-06
                          CHANNELS 3 Zrotation Yrotation Xrotation
                          JOINT RightHandRingEnd
                          {
                            OFFSET -1.933568 0.077527 -5.2e-05
                            CHANNELS 3 Zrotation Yrotation Xrotation
                          }
                        }
                      }
                    }
                  }
                  JOINT RightHandPinky1
                  {
                    OFFSET -2.866425 -0.342796 -1.584145
                    CHANNELS 3 Zrotation Yrotation Xrotation
                    JOINT RightHandPinky2
                    {
                      OFFSET -5.091371 -1.332055 -1.772385
                      CHANNELS 3 Zrotation Yrotation Xrotation
                      JOINT RightHandPinky3
                      {
                        OFFSET -3.062664 -4e-06 1e-06
                        CHANNELS 3 Zrotation Yrotation Xrotation
                        JOINT RightHandPinky4
                        {
                          OFFSET -1.546529 4e-06 -2e-06
                          CHANNELS 3 Zrotation Yrotation Xrotation
                          JOINT RightHandPinkyEnd
                          {
                            OFFSET -1.945119 -0.157718 0.057211
                            CHANNELS 3 Zrotation Yrotation Xrotation
                          }
                        }
                      }
                    }
                  }
                }
              }
            }
          }
        }
      }
    }
    JOINT LeftLeg
    {
      OFFSET 10.043214 -8.434526 2.595655
      CHANNELS 3 Zrotation Yrotation Xrotation
      JOINT LeftShin
      {
        OFFSET -1e-06 -43.221752 -0.802913
        CHANNELS 3 Zrotation Yrotation Xrotation
        JOINT LeftFoot
        {
          OFFSET 1e-06 -42.155094 -3.481523
          CHANNELS 3 Zrotation Yrotation Xrotation
          JOINT LeftToeBase
          {
            OFFSET 0.0 -5.059472 13.231529
            CHANNELS 3 Zrotation Yrotation Xrotation
            JOINT LeftToeEnd
            {
              OFFSET -0.009607 -1.647619 6.513017
              CHANNELS 3 Zrotation Yrotation Xrotation
            }
          }
        }
      }
    }
    JOINT RightLeg
    {
      OFFSET -10.047278 -8.29526 2.620317
      CHANNELS 3 Zrotation Yrotation Xrotation
      JOINT RightShin
      {
        OFFSET 1e-06 -43.362206 -0.805556
        CHANNELS 3 Zrotation Yrotation Xrotation
        JOINT RightFoot
        {
          OFFSET 2e-06 -42.117393 -3.478398
          CHANNELS 3 Zrotation Yrotation Xrotation
          JOINT RightToeBase
          {
            OFFSET -0.0 -5.079609 13.284196
            CHANNELS 3 Zrotation Yrotation Xrotation
            JOINT RightToeEnd
            {
              OFFSET 0.009532 -1.634378 6.460591
              CHANNELS 3 Zrotation Yrotation Xrotation
            }
          }
        }
      }
    }
  }
}
MOTION
Frames: 5
Frame Time: 0.03333333333333333
0.0 0.0 0.0 0.0 -0.0 0.0 -1.478162 100.210617 0.462913 2.214777 11.422616 3.283475 0.465648 0.815173 -2.067284 -0.283604 2.894138 -5.503945 -2.605621 0.420436 9.712721 6.226257 0.910275 -5.838462 -3.667003 -10.24515 -3.212155 -0.078525 -14.30249 -16.181627 7.8e-05 -2.1e-05 7e-06 0.031416 0.112974 0.08566 0.615296 -3.675383 -10.525025 -0.558525 3.873408 -10.507357 -14.439329 -1.216045 11.45338 -61.293278 -8.199197 18.735567 -0.049256 -22.356737 -0.069263 5.9958 3.445097 -5.684578 -5.882153 9.86113 0.702713 -10.936714 -0.360415 7.156312 -7e-06 8.774921 -6e-06 -16.164854 18.012867 6.008932 -1.844046 2.498506 -2.507289 -10.163701 4.679008 4.621068 -20.976284 5e-06 -1.8e-05 -21.226723 2.451757 -3.594142 3e-06 -5e-06 -0.0 -1.362718 2.240882 -0.746334 -21.335085 0.58484 3.008308 -13.821387 -0.0 -1.7e-05 -23.887758 -0.249083 -0.839596 -60.514336 2.445981 -1.263768 -0.29407 1.679795 0.833247 -14.218277 0.093101 1.300568 -34.212502 -0.287569 0.967132 -20.033489 0.964527 1.212845 0.0 -0.0 0.0 -3.440529 0.788402 0.50161 -15.928167 -3.167512 2.999741 -6.338901 2e-06 -1.2e-05 -18.123842 3.648204 -4.905812 -3e-06 -0.0 -1e-06 11.781936 16.657463 12.816862 -18.87697 41.930954 -59.977428 -7.194224 70.377037 -2.842993 -44.932198 9.400212 39.817886 2.243664 -5.254824 -3.179983 14.282804 -0.826726 6.952579 -5e-06 -12.690711 -1.1e-05 17.29578 -17.396238 2.854472 1.665675 -1.955924 -2.878314 4.727838 -4.170627 4.993909 11.02065 6e-06 1.6e-05 12.109279 -3.735778 -2.86683 -3e-06 1e-06 1e-06 1.292005 -1.928617 -1.498109 14.800245 0.56754 3.865627 14.242729 -1.341754 -6.660688 19.632408 0.143899 -0.648256 51.92701 -0.994852 -6.42341 0.353056 -1.51124 -0.031959 20.222935 3.68443 2.316674 18.787508 7e-06 1.4e-05 10.751756 -0.479868 1.397941 -2e-06 -1e-06 1e-06 3.273925 0.305823 -0.580152 21.486887 11.830585 2.266212 8.163026 9e-06 -3e-06 18.39946 -3.798987 -4.94066 3e-06 -1e-06 -1e-06 3.053054 -9.403623 -4.3285 0.090733 -0.118208 1.728656 -6.554473 -5.598815 -1.322803 1.599066 -2.101907 0.020545 1e-06 -0.0 2e-06 -3.544778 -13.713322 0.024339 -0.011021 0.284292 1.912804 3.915709 -5.381816 -5.068164 -1.408347 0.924532 -0.088177 1e-06 1e-06 -0.0 
0.0 0.0 0.0 0.0 -0.0 0.0 -1.414591 100.221786 0.405241 2.150389 11.253968 3.237587 0.572107 0.773781 -2.065722 -0.288934 2.978168 -5.602795 -2.657691 0.363637 9.71812 6.416877 0.751723 -5.692301 -3.678245 -9.976062 -3.281087 -0.10539 -14.181892 -16.392572 7.7e-05 -2.2e-05 8e-06 0.033762 0.089731 0.060278 0.625291 -3.685255 -10.495761 -0.564142 3.834525 -10.494285 -14.43546 -1.115703 11.494561 -61.421829 -8.324737 18.893959 0.019934 -22.278084 -0.110478 5.948835 3.236359 -5.907765 -5.882087 9.861337 0.702504 -10.936877 -0.360639 7.156166 1e-06 8.77479 -5e-06 -16.123423 18.045916 5.952879 -1.844028 2.498503 -2.50727 -10.163576 4.678926 4.621108 -20.975977 -7e-06 4e-06 -21.226254 2.451666 -3.593988 2e-06 -6e-06 -1e-06 -1.362679 2.240768 -0.746319 -21.334869 0.584936 3.008321 -13.821185 -4e-06 4e-06 -23.887154 -0.249094 -0.839471 -60.442577 2.372892 -1.142599 -0.294022 1.679653 0.833259 -14.218182 0.093253 1.300583 -34.211994 -0.287566 0.967173 -20.033209 0.964533 1.212851 -1e-06 0.0 -0.0 -3.440369 0.788183 0.501669 -15.92817 -3.167244 2.999699 -6.338816 -1e-06 1e-06 -18.123444 3.648157 -4.905669 -4e-06 0.0 -2e-06 11.887958 16.820093 13.157293 -18.655155 42.298409 -60.078796 -9.311617 71.515923 -4.40883 -44.323044 12.177943 42.267056 2.243575 -5.254927 -3.180129 14.282842 -0.826663 6.952518 -1.6e-05 -12.690663 -1.1e-05 16.955851 -17.268015 3.170723 1.665666 -1.955922 -2.8783 4.727802 -4.170605 4.993913 11.020567 1.8e-05 1e-06 12.109139 -3.735734 -2.866826 -1e-06 1e-06 -1e-06 1.29198 -1.928579 -1.498092 14.800156 0.567519 3.865615 14.242608 -1.341731 -6.660673 19.632132 0.143964 -0.648241 51.612923 -0.962773 -6.427833 0.353021 -1.51119 -0.031946 20.222836 3.68439 2.316655 18.787338 2.8e-05 1.5e-05 10.751681 -0.479857 1.397937 0.0 -0.0 0.0 3.273806 0.305904 -0.580121 21.48686 11.830489 2.266185 8.162955 1.3e-05 5e-06 18.399225 -3.798957 -4.940605 2e-06 -1e-06 -2e-06 3.054593 -9.31391 -4.36699 0.102422 -0.093377 1.835621 -6.415788 -5.507758 -1.376541 1.607473 -2.043932 0.063588 0.0 0.0 1e-06 -3.494689 -13.415323 -0.007044 -0.047467 0.195055 1.93745 3.961843 -5.442067 -5.01634 -1.406883 0.909189 -0.208788 0.0 -0.0 -2e-06 
0.0 0.0 0.0 0.0 -0.0 0.0 -1.408736 100.254166 0.323373 2.105358 11.226738 3.198369 0.623938 0.773592 -2.102771 -0.282051 3.071504 -5.595817 -2.646231 0.461569 9.666432 6.232779 0.740518 -5.605285 -3.694022 -9.921311 -3.288165 -0.014771 -14.075636 -16.47501 7.7e-05 -2.2e-05 7e-06 0.018774 0.038671 0.022922 0.587136 -3.730361 -10.507178 -0.555687 3.774369 -10.498022 -14.631526 -1.227435 11.746179 -61.381298 -8.570696 18.426891 0.035548 -22.643572 -0.129722 6.341161 2.995367 -5.323097 -5.882111 9.861162 0.702859 -10.936896 -0.360556 7.156312 -1.2e-05 8.774848 -9e-06 -15.955348 17.945427 6.037026 -1.844026 2.498508 -2.507287 -10.163589 4.678965 4.62109 -20.976027 1.6e-05 1.2e-05 -21.226349 2.45173 -3.594061 1e-06 -6e-06 -0.0 -1.362677 2.24082 -0.746341 -21.334887 0.584904 3.008335 -13.821221 1.3e-05 1.3e-05 -23.887276 -0.249042 -0.839511 -60.385006 2.353048 -1.11141 -0.294022 1.679716 0.833234 -14.218183 0.093193 1.30059 -34.212082 -0.287516 0.967199 -20.033274 0.964576 1.212873 -0.0 -1e-06 0.0 -3.440372 0.788282 0.501631 -15.928159 -3.167358 2.99974 -6.338829 5e-06 1e-05 -18.123518 3.648212 -4.905713 -3e-06 0.0 -3e-06 11.047647 16.921038 12.835176 -15.641645 43.745327 -62.956394 -11.804537 73.077065 -6.65278 -52.772507 11.073798 40.311325 2.243506 -5.254955 -3.179911 14.282787 -0.826606 6.952653 -1.2e-05 -12.690609 2e-06 15.99129 -17.39794 4.006301 1.665674 -1.955926 -2.878315 4.727827 -4.170591 4.993889 11.020599 1e-05 -1.8e-05 12.109211 -3.735699 -2.866869 1e-06 1e-06 -1e-06 1.292003 -1.928552 -1.498121 14.800179 0.567468 3.865587 14.242665 -1.341717 -6.660722 19.632246 0.143976 -0.648335 50.705425 -0.96603 -6.329929 0.353052 -1.511154 -0.031978 20.222853 3.684313 2.316608 18.787386 2.5e-05 -2.4e-05 10.751692 -0.479865 1.39792 -5e-06 2e-06 -1e-06 3.273868 0.305939 -0.58018 21.48683 11.830359 2.266127 8.162968 6e-06 -9e-06 18.399279 -3.798926 -4.940662 1e-06 -0.0 -3e-06 3.10202 -9.411327 -4.401412 0.062603 -0.140815 1.845088 -6.274782 -5.347461 -1.404738 1.622898 -1.952286 0.13254 0.0 0.0 6e-06 -3.472516 -13.286933 -0.019242 -0.049765 0.147153 1.99112 4.090759 -5.47617 -5.068662 -1.413458 0.875753 -0.006684 -0.0 -0.0 1e-06 
0.0 0.0 0.0 0.0 -0.0 0.0 -1.379898 100.25489 0.269553 2.14671 11.232567 3.15138 0.553043 0.861262 -2.177453 -0.271415 3.03794 -5.526856 -2.556621 0.789179 9.587613 5.787532 0.879189 -5.634626 -3.729599 -10.062144 -3.354514 0.172091 -13.9339 -15.946706 7.7e-05 -2.2e-05 7e-06 -0.014035 -0.01262 0.014708 0.518487 -3.784727 -10.506158 -0.552268 3.728075 -10.482045 -14.9954 -1.363544 12.058894 -61.001862 -9.017483 17.632524 -0.315083 -22.934832 -0.030003 7.057166 2.586571 -4.848164 -5.882113 9.861274 0.702623 -10.936827 -0.360511 7.156264 4e-06 8.774853 2e-06 -15.810206 17.856747 6.136197 -1.844031 2.498502 -2.507279 -10.163609 4.678951 4.621094 -20.976074 -1.2e-05 5e-06 -21.226398 2.451705 -3.594044 -1e-06 -5e-06 -0.0 -1.362683 2.240803 -0.746322 -21.334932 0.584883 3.008316 -13.821247 -7e-06 3e-06 -23.887346 -0.249093 -0.8395 -60.237843 2.427305 -1.253188 -0.294026 1.6797 0.833259 -14.218215 0.093177 1.30057 -34.212154 -0.287575 0.967181 -20.03331 0.964535 1.212864 -0.0 0.0 1e-06 -3.440396 0.78825 0.501656 -15.928181 -3.167361 2.999706 -6.338843 -4e-06 2e-06 -18.123581 3.648175 -4.905716 -2e-06 1e-06 -2e-06 10.140916 16.857716 12.256082 -12.129075 45.49918 -65.992325 -13.355509 73.871353 -7.857644 -64.451103 5.93526 33.102283 2.243569 -5.254977 -3.180104 14.282847 -0.826606 6.952536 -8e-06 -12.690624 -1e-05 15.739109 -16.848267 4.268116 1.665668 -1.955924 -2.878303 4.727813 -4.170595 4.993909 11.020578 9e-06 2e-06 12.109177 -3.735723 -2.866827 -1e-06 2e-06 1e-06 1.291989 -1.92856 -1.498101 14.800161 0.567482 3.865613 14.242629 -1.341734 -6.660677 19.632185 0.143933 -0.648265 49.56279 -0.842235 -5.973922 0.353034 -1.511162 -0.031951 20.222832 3.684332 2.316643 18.787361 1.6e-05 7e-06 10.751683 -0.479867 1.397924 -2e-06 2e-06 -3e-06 3.273828 0.305924 -0.580131 21.486835 11.830409 2.26616 8.162962 9e-06 -3e-06 18.399269 -3.798961 -4.940623 -1e-06 3e-06 2e-06 3.064689 -9.53229 -4.34875 0.042377 -0.193672 1.802895 -6.35339 -5.361295 -1.335683 1.629012 -1.922864 -0.062805 -1e-06 0.0 2e-06 -3.591711 -13.4511 0.00778 0.000814 0.197187 1.996459 4.279496 -5.348281 -4.985485 -1.416637 0.850673 0.009157 0.0 -0.0 -1e-06 
0.0 0.0 0.0 0.0 -0.0 0.0 -1.303935 100.258026 0.205696 2.189818 11.063195 3.077092 0.499472 0.919798 -2.279938 -0.261419 2.967006 -5.49324 -2.492476 0.969809 9.596488 5.435684 0.997766 -5.730036 -3.713707 -10.03507 -3.365698 0.215743 -13.731129 -15.541384 7.7e-05 -2.2e-05 5e-06 -0.030848 -0.016797 0.021174 0.485352 -3.807141 -10.532674 -0.551944 3.746099 -10.504815 -15.121516 -1.420781 12.183764 -60.864758 -9.163086 17.057449 -0.468159 -23.297852 0.005418 7.763127 2.39321 -5.026304 -5.882059 9.861341 0.702401 -10.936893 -0.360623 7.156116 -4e-06 8.774803 -8e-06 -15.781551 17.753059 6.07433 -1.844025 2.498501 -2.507266 -10.163558 4.678934 4.621112 -20.975927 -6e-06 -1.2e-05 -21.226177 2.451671 -3.594006 -4e-06 -6e-06 -1e-06 -1.362677 2.240786 -0.74631 -21.334839 0.584924 3.008318 -13.821157 -5e-06 -7e-06 -23.887056 -0.249099 -0.839493 -59.831112 2.350681 -1.436929 -0.29402 1.67967 0.833268 -14.218167 0.093237 1.300585 -34.211899 -0.287573 0.967148 -20.03315 0.964521 1.212835 -0.0 -1e-06 1e-06 -3.440356 0.788212 0.501679 -15.928164 -3.167277 2.9997 -6.338798 -2e-06 -3e-06 -18.123362 3.648168 -4.905672 -2e-06 0.0 -1e-06 10.231332 16.749018 12.008852 -10.341288 46.49118 -66.32148 -11.91189 73.820969 -6.838232 -68.75985 2.233697 25.759323 2.243544 -5.255035 -3.180127 14.282884 -0.826557 6.952507 -1.1e-05 -12.690582 -7e-06 15.80604 -16.233482 3.977726 1.665662 -1.955925 -2.878298 4.727791 -4.170578 4.993913 11.02052 1.4e-05 2e-06 12.109057 -3.735686 -2.8668 -1e-06 -2e-06 2e-06 1.291981 -1.928538 -1.498093 14.800114 0.56746 3.865609 14.242552 -1.341724 -6.660661 19.631981 0.143962 -0.648238 48.368477 -0.773193 -5.659183 0.35302 -1.511137 -0.031946 20.222769 3.684286 2.316633 18.787252 1.5e-05 1e-05 10.751632 -0.479865 1.397924 -3e-06 2e-06 0.0 3.273784 0.305962 -0.580116 21.486801 11.830327 2.266137 8.16292 7e-06 4e-06 18.399096 -3.798961 -4.940569 3e-06 2e-06 -2e-06 2.959487 -9.513137 -4.207318 0.07203 -0.222174 1.722403 -6.290213 -5.343973 -1.288973 1.618344 -1.978341 -0.319516 0.0 0.0 1e-06 -3.706685 -13.670918 0.059946 0.028371 0.28602 1.943979 4.300262 -5.103954 -4.797322 -1.41046 0.869771 -0.056669 1e-06 -0.0 -4e-06 
